# xmcd
# Copyright (c) 1998 CDDB Inc.
#
# Track frame offsets:
#	150
#	17350
#	33987
#	50507
#	68170
#	84412
#	99325
#	115512
#	128542
#	141105
#	152135
#	165800
#	182937
#	208352
#	222202
#	234767
#	248367
#	266815
#	282757
#
# Disc length: 3950 seconds
#
# Revision: 1
# Processed by: cddbd v1.5PL3 Copyright (c) Steve Scherf et al.
# Submitted via: audiograbber 1.70
#
DISCID=f20f6c13
DTITLE=LOVE - 3 CD2 BOXSET
DYEAR=1900
DGENRE=
TTITLE0=CAPTAN and TENNILLE - DO THAT TO ME ONE MORE TIME
TTITLE1=DIANNA ROSS - I'M STILL WAITING
TTITLE2=WET WET WET - GOODHIHT GIRL
TTITLE3=KOOL and THE GANG - CHERISH
TTITLE4=BILLY PRESTON - WITH YOU I'M BORN AGAIN
TTITLE5=THE STYLISTCS - I'M STONE IN LOVE WITH YOU
TTITLE6=COMMODORES - THREE TIMES A LADY
TTITLE7=JIMMY RUFFIN - WHAT BECOMES OF THE BROKEN HEARTED
TTITLE8=DUSTY SPRINGFIELD - YOU DON'T HAVE TO SAY YOU LOVE ME
TTITLE9=DAVE BERRY - BABY IT'S YOU
TTITLE10=THE WALKER BROTHERS - THE SUN AIN'T GONNA SHINE ANYMORE
TTITLE11=MARIA MCKEE - SHOW ME HEAVEN
TTITLE12=RICK JAMES and TEENA MARIE - FIRE and DESIRE
TTITLE13=ETTA JAMES - I JUST WANT TO MAKE LOVE TO YOU
TTITLE14=MARY WELLS - MY GUY
TTITLE15=DIANA ROSS and MARVIN GAYE - YOU ARE EVERTHING
TTITLE16=JEFFERY OSBORNE - ON THE WINGS OF LOVE
TTITLE17=MICA PARIS - MY ONE TEMPTATION
TTITLE18=THE MAMAS and THE PAPAS - DEDICATED TO THE ONE I LOVE
EXTD=
EXTT0=
EXTT1=
EXTT2=
EXTT3=
EXTT4=
EXTT5=
EXTT6=
EXTT7=
EXTT8=
EXTT9=
EXTT10=
EXTT11=
EXTT12=
EXTT13=
EXTT14=
EXTT15=
EXTT16=
EXTT17=
EXTT18=
PLAYORDER=
